<svg xmlns="http://www.w3.org/2000/svg" viewBox="0 0 620 340"><defs><linearGradient id="r" x1="0" y1="0" x2="0" y2="1"><stop stop-color="#8b8f78"/><stop offset="1" stop-color="#46564a"/></linearGradient><linearGradient id="m" x1="0" y1="0" x2="1" y2="1"><stop stop-color="#79a85f"/><stop offset="1" stop-color="#365d3f"/></linearGradient><filter id="sh"><feDropShadow dx="0" dy="10" stdDeviation="9" flood-color="#173029" flood-opacity=".35"/></filter></defs><g filter="url(#sh)"><path d="M40 245 C90 180 130 135 195 110 C280 76 360 80 430 113 C500 145 540 190 578 248 L548 310 75 310Z" fill="url(#r)"/><path d="M70 206 C130 160 190 135 270 130 C350 125 425 145 500 205 C420 190 350 188 280 199 C205 211 140 225 70 206Z" fill="url(#m)"/><path d="M110 202 C155 176 202 164 246 160" stroke="#b4c890" stroke-width="13" stroke-linecap="round" opacity=".7"/><path d="M282 151 C336 150 391 162 435 184" stroke="#9ebe7d" stroke-width="12" stroke-linecap="round" opacity=".65"/><g stroke="#34463d" stroke-width="5" opacity=".6"><path d="M160 170 L136 276"/><path d="M252 144 L235 300"/><path d="M354 143 L370 304"/><path d="M448 172 L486 285"/></g><g fill="#27523a"><circle cx="101" cy="178" r="29"/><circle cx="140" cy="150" r="33"/><circle cx="492" cy="169" r="31"/><circle cx="530" cy="202" r="29"/></g><g fill="#e1b960"><circle cx="188" cy="145" r="6"/><circle cx="207" cy="139" r="5"/><circle cx="403" cy="160" r="6"/></g><g fill="#d68aa6"><circle cx="170" cy="153" r="6"/><circle cx="422" cy="168" r="6"/></g></g></svg>